<svg width="24" height="24" viewBox="0 0 24 24" version="1.1" xmlns="http://www.w3.org/2000/svg" xmlns:xlink="http://www.w3.org/1999/xlink">
<title>ico-weibo</title>
<desc>Created using Figma</desc>
<g id="Canvas" transform="translate(152 1064)">
<clipPath id="clip-0" clip-rule="evenodd">
<path d="M -152 -1064L -128 -1064L -128 -1040L -152 -1040L -152 -1064Z" fill="#FFFFFF"/>
</clipPath>
<g id="ico-weibo" clip-path="url(#clip-0)">
<g id="sinaweibo">
<g id="Vector">
<use xlink:href="#path0_fill" transform="translate(-152 -1062)"/>
</g>
</g>
</g>
</g>
<defs>
<path id="path0_fill" d="M 10.098 18.0662C 6.121 18.4572 2.684 16.6602 2.426 14.0462C 2.167 11.4372 5.185 8.99921 9.166 8.60521C 13.145 8.21121 16.579 10.0092 16.837 12.6232C 17.096 15.2232 14.078 17.6722 10.1 18.0622L 10.098 18.0662L 10.098 18.0662ZM 9.05 14.9622C 8.666 15.5782 7.842 15.8462 7.221 15.5642C 6.609 15.2852 6.428 14.5732 6.815 13.9712C 7.194 13.3762 7.991 13.1102 8.608 13.3702C 9.23 13.6332 9.428 14.3422 9.05 14.9622ZM 10.32 13.3352C 10.179 13.5722 9.871 13.6882 9.631 13.5882C 9.395 13.4982 9.318 13.2272 9.454 13.0022C 9.592 12.7752 9.89 12.6562 10.126 12.7622C 10.365 12.8522 10.441 13.1222 10.306 13.3632L 10.32 13.3352ZM 10.496 10.6162C 8.603 10.1232 6.463 11.0662 5.639 12.7342C 4.803 14.4382 5.613 16.3252 7.525 16.9442C 9.508 17.5842 11.843 16.6032 12.657 14.7652C 13.457 12.9722 12.456 11.1232 10.496 10.6162ZM 18.059 9.39221C 17.713 9.28721 17.489 9.21221 17.654 8.77721C 18.029 7.80021 18.074 6.97321 17.654 6.37321C 16.873 5.26121 14.739 5.32021 12.29 6.34321C 12.29 6.34321 11.524 6.67421 11.719 6.07221C 12.095 4.85521 12.034 3.84821 11.449 3.26321C 10.111 1.92621 6.58 3.30821 3.561 6.34321C 1.309 8.61321 0 11.0162 0 13.0912C 0 17.0722 5.099 19.4862 10.086 19.4862C 16.622 19.4862 20.974 15.6852 20.974 12.6662C 20.974 10.8442 19.427 9.81221 18.059 9.38221L 18.059 9.39221L 18.059 9.39221ZM 19.967 4.30021C 19.201 3.44421 18.059 3.11321 17.007 3.33821C 16.571 3.42821 16.301 3.84921 16.391 4.27021C 16.481 4.69021 16.902 4.96121 17.323 4.87221C 17.834 4.76721 18.39 4.91621 18.765 5.33721C 19.141 5.75821 19.231 6.31421 19.081 6.81021C 18.945 7.21621 19.17 7.66621 19.591 7.80221C 19.996 7.92121 20.448 7.69721 20.583 7.29021C 20.913 6.26921 20.703 5.11221 19.937 4.25521L 19.967 4.30021L 19.967 4.30021ZM 22.385 2.10521C 20.809 0.348213 18.48 -0.313787 16.331 0.137213C 15.835 0.241213 15.519 0.724213 15.625 1.21821C 15.729 1.71421 16.211 2.03121 16.707 1.92521C 18.239 1.59421 19.892 2.07521 21.003 3.30821C 22.115 4.55421 22.432 6.25121 21.95 7.72421C 21.785 8.20421 22.056 8.73121 22.536 8.88121C 23.015 9.04621 23.527 8.77721 23.693 8.29521C 24.368 6.20721 23.934 3.81721 22.355 2.06021L 22.385 2.10521L 22.385 2.10521Z"/>
</defs>
</svg>
