<svg width="24" height="24" viewBox="0 0 24 24" version="1.1" xmlns="http://www.w3.org/2000/svg" xmlns:xlink="http://www.w3.org/1999/xlink">
<title>ico-twitter</title>
<desc>Created using Figma</desc>
<g id="Canvas" transform="translate(200 1064)">
<clipPath id="clip-0" clip-rule="evenodd">
<path d="M -200 -1064L -175.999 -1064L -175.999 -1040L -200 -1040L -200 -1064Z" fill="#FFFFFF"/>
</clipPath>
<g id="ico-twitter" clip-path="url(#clip-0)">
<g id="twitter">
<g id="Vector">
<use xlink:href="#path0_fill" transform="translate(-200 -1062)"/>
</g>
</g>
</g>
</g>
<defs>
<path id="path0_fill" d="M 23.954 2.323C 23.069 2.712 22.124 2.977 21.129 3.098C 22.143 2.487 22.923 1.524 23.292 0.375C 22.341 0.93 21.287 1.334 20.165 1.559C 19.269 0.6 17.992 5.14984e-08 16.574 5.14984e-08C 13.857 5.14984e-08 11.654 2.203 11.654 4.917C 11.654 5.307 11.699 5.682 11.781 6.041C 7.691 5.848 4.066 3.884 1.64 0.915C 1.213 1.637 0.974 2.476 0.974 3.39C 0.974 5.1 1.844 6.603 3.162 7.486C 2.355 7.46 1.596 7.238 0.934 6.87L 0.934 6.931C 0.934 9.316 2.627 11.305 4.88 11.758C 4.467 11.869 4.031 11.929 3.584 11.929C 3.27 11.929 2.969 11.899 2.668 11.843C 3.299 13.796 5.113 15.22 7.272 15.26C 5.592 16.579 3.463 17.365 1.17 17.365C 0.78 17.365 0.391 17.342 0 17.298C 2.189 18.692 4.768 19.507 7.557 19.507C 16.611 19.507 21.556 12.011 21.556 5.521C 21.556 5.312 21.556 5.101 21.541 4.891C 22.502 4.202 23.341 3.331 24.001 2.343L 23.954 2.323Z"/>
</defs>
</svg>
